<?xml version="1.0" encoding="UTF-8" standalone="no"?>
<!-- Uploaded to: SVG Repo, www.svgrepo.com, Generator: SVG Repo Mixer Tools -->

<svg
   fill="currentcolor"
   height="800"
   width="800"
   version="1.1"
   id="Capa_1"
   viewBox="0 0 490 490"
   xml:space="preserve"
   sodipodi:docname="departures-sing-svgrepo-com.svg"
   xmlns:inkscape="http://www.inkscape.org/namespaces/inkscape"
   xmlns:sodipodi="http://sodipodi.sourceforge.net/DTD/sodipodi-0.dtd"
   xmlns="http://www.w3.org/2000/svg"
   xmlns:svg="http://www.w3.org/2000/svg"><defs
   id="defs3" /><sodipodi:namedview
   id="namedview3"
   pagecolor="#505050"
   bordercolor="#eeeeee"
   borderopacity="1"
   inkscape:showpageshadow="0"
   inkscape:pageopacity="0"
   inkscape:pagecheckerboard="0"
   inkscape:deskcolor="#505050" />
<g
   id="g3"
   style="fill:#ffffff">
	<path
   d="m 405.709,91.159 c -27.928,7.882 -84.922,32.9 -138.313,55.853 L 157.153,51.899 c -2.061,-1.777 -4.874,-2.405 -7.494,-1.672 l -43.865,12.268 c -2.407,0.673 -4.371,2.418 -5.322,4.729 -0.953,2.312 -0.787,4.932 0.449,7.106 l 66.225,116.528 C 128.638,207.934 93.807,223.605 69.31,234.684 L 39.441,196.187 c -0.944,-1.216 -2.532,-1.741 -4.015,-1.327 L 2.77,203.996 c -1.076,0.3 -1.964,1.06 -2.428,2.076 -0.464,1.016 -0.456,2.185 0.021,3.195 l 56.828,120.171 c 0.79,1.669 2.669,2.527 4.448,2.03 0,0 283.285,-79.235 377.712,-105.646 36.806,-10.294 58.373,-48.611 48.079,-85.416 -10.137,-36.249 -47.584,-58.881 -81.721,-49.247 z"
   id="path1"
   style="fill:#ffffff" />
	<g
   id="g2"
   style="fill:#ffffff">
		<path
   d="M 370.603,440.074 H 119.397 c -8.971,0 -16.244,-7.272 -16.244,-16.244 0,-8.971 7.273,-16.244 16.244,-16.244 h 251.206 c 8.972,0 16.244,7.273 16.244,16.244 0,8.972 -7.272,16.244 -16.244,16.244 z"
   id="path2"
   style="fill:#ffffff" />
	</g>
</g>
</svg>
