<?xml version="1.0" encoding="iso-8859-1"?>
<!-- Uploaded to: SVG Repo, www.svgrepo.com, Generator: SVG Repo Mixer Tools -->
<!DOCTYPE svg PUBLIC "-//W3C//DTD SVG 1.1//EN" "http://www.w3.org/Graphics/SVG/1.1/DTD/svg11.dtd">
<svg fill="currentcolor" height="800px" width="800px" version="1.1" id="Capa_1" xmlns="http://www.w3.org/2000/svg" xmlns:xlink="http://www.w3.org/1999/xlink" 
	 viewBox="0 0 490 490" xml:space="preserve">
<g>
	<path d="M405.709,91.159c-27.928,7.882-84.922,32.9-138.313,55.853L157.153,51.899c-2.061-1.777-4.874-2.405-7.494-1.672
		l-43.865,12.268c-2.407,0.673-4.371,2.418-5.322,4.729c-0.953,2.312-0.787,4.932,0.449,7.106l66.225,116.528
		c-38.508,17.076-73.339,32.747-97.836,43.826l-29.869-38.497c-0.944-1.216-2.532-1.741-4.015-1.327L2.77,203.996
		c-1.076,0.3-1.964,1.06-2.428,2.076c-0.464,1.016-0.456,2.185,0.021,3.195l56.828,120.171c0.79,1.669,2.669,2.527,4.448,2.03
		c0,0,283.285-79.235,377.712-105.646c36.806-10.294,58.373-48.611,48.079-85.416C477.293,104.157,439.846,81.525,405.709,91.159z"
		/>
	<g>
		<path d="M370.603,440.074H119.397c-8.971,0-16.244-7.272-16.244-16.244c0-8.971,7.273-16.244,16.244-16.244h251.206
			c8.972,0,16.244,7.273,16.244,16.244C386.847,432.802,379.575,440.074,370.603,440.074z"/>
	</g>
</g>
</svg>