<?xml version="1.0" encoding="UTF-8" standalone="no"?>
<!-- Uploaded to: SVG Repo, www.svgrepo.com, Generator: SVG Repo Mixer Tools -->

<svg
   fill="#000000"
   width="800"
   height="800"
   viewBox="0 0 20 20"
   version="1.1"
   id="svg1"
   xmlns="http://www.w3.org/2000/svg"
   xmlns:svg="http://www.w3.org/2000/svg">
  <defs
     id="defs1" />
  <path
     d="m 14,5 h 2 V 19 H 4 V 5 H 6 V 4 A 2,2 0 0 1 8,2 h 4 a 2,2 0 0 1 2,2 z m 3,0 h 1 a 2,2 0 0 1 2,2 v 10 a 2,2 0 0 1 -2,2 H 17 Z M 3,5 V 19 H 2 A 2,2 0 0 1 0,17 V 7 C 0,5.9 0.9,5 2,5 Z M 8,4 v 1 h 4 V 4 Z"
     id="path1"
     style="fill:#ffffff" />
</svg>
